{"title":"Watership Down 1978 BRrip HD English Klam","uid":6130878,"size":2308301224,"categoryP":"video","categoryS":"movies","magnet":"?xt=urn:btih:e89385a7de329fbc4517281bd4684e151ccef554&amp;dn=Watership+Down+1978+BRrip+HD+English+Klam&amp;tr=udp%3A%2F%2Ftracker.openbittorrent.com%3A80&amp;tr=udp%3A%2F%2Fopen.demonii.com%3A1337&amp;tr=udp%3A%2F%2Ftracker.coppersurfer.tk%3A6969&amp;tr=udp%3A%2F%2Fexodus.desync.com%3A6969","seeders":0,"leechers":1,"uploader":"Klambake","files":-1,"time":1296126018,"description":"With: the voices of John Hurt, Richard Briers and Roy Kinnear\n\nBased upon Richard Adam's novel of the same title, this animated feature delves into the surprisingly violent world of a warren of rabbits as they seek to establish a new colony free of tyranny and human intervention. Frightening and bloody in some scenes. Not recommended for young children.\n\nGeneral:\n\nComplete name                    : Watership Down\\Watership Down.avi\nFormat                           : AVI\nFormat/Info                      : Audio Video Interleave\nFormat profile                   : OpenDML\nFile size                        : 2.15 GiB\nDuration                         : 1h 31mn\nOverall bit rate                 : 3 345 Kbps\nWriting application              : VirtualDubMod 1.5.10.2 (build 2540/release)\nWriting library                  : VirtualDubMod build 2540/release\n\nVideo:\n\nFormat                           : MPEG-4 Visual\nFormat profile                   : Advanced Simple@L5\nFormat settings, BVOP            : Yes\nFormat settings, QPel            : No\nFormat settings, GMC             : No warppoints\nFormat settings, Matrix          : Default (H.263)\nCodec ID                         : XVID\nCodec ID/Hint                    : XviD\nDuration                         : 1h 31mn\nBit rate                         : 2 693 Kbps\nWidth                            : 1 280 pixels\nHeight                           : 720 pixels\nDisplay aspect ratio             : 16:9\nFrame rate                       : 23.976 fps\nColor space                      : YUV\nChroma subsampling               : 4:2:0\nBit depth                        : 8 bits\nScan type                        : Progressive\nBits/(Pixel*Frame)               : 0.122\nStream size                      : 1.73 GiB (81%)\nWriting library                  : XviD 1.2.1 (UTC 2008-12-04)\n\nAudio:\n\nFormat                           : AC-3\nFormat/Info                      : Audio Coding 3\nMode extension                   : CM (complete main)\nCodec ID                         : 2000\nDuration                         : 1h 31mn\nBit rate mode                    : Constant\nBit rate                         : 640 Kbps\nChannel(s)                       : 2 channels\nChannel positions                : Front: L R\nSampling rate                    : 48.0 KHz\nBit depth                        : 16 bits\nStream size                      : 421 MiB (19%)\nAlignment                        : Aligned on interleaves\nInterleave, duration             : 42 ms (1.00 video frame)\nInterleave, preload duration     : 512 ms\n\n","torrent":{"xt":"urn:btih:e89385a7de329fbc4517281bd4684e151ccef554","amp;dn":"Watership+Down+1978+BRrip+HD+English+Klam","amp;tr":["udp%3A%2F%2Ftracker.openbittorrent.com%3A80","udp%3A%2F%2Fopen.demonii.com%3A1337","udp%3A%2F%2Ftracker.coppersurfer.tk%3A6969","udp%3A%2F%2Fexodus.desync.com%3A6969"],"infoHash":"e89385a7de329fbc4517281bd4684e151ccef554","infoHashBuffer":{"type":"Buffer","data":[232,147,133,167,222,50,159,188,69,23,40,27,212,104,78,21,28,206,245,84]},"announce":[],"urlList":[]}}